<svg width="46" height="52" fill="none" xmlns="http://www.w3.org/2000/svg"><path d="M0 0h46v52H0z"/><g clip-path="url('#clip0_0_1')"><path d="M-19-3903h320v6711H-19z"/><path d="M-19-1314h320V250H-19z"/><mask id="path-2-outside-1_0_1" maskUnits="userSpaceOnUse" x="0" y="0" width="46" height="52" fill="#000"><path fill="#fff" d="M0 0h46v52H0z"/><path d="M10.575 1.108c-4.566.957-8.11 4.708-9.267 9.81-.423 1.782-.404 5.214.02 7.165.944 4.332 3.043 8.177 6.357 11.516 2.967 3.001 5.567 4.82 9.69 6.715l2.157 1.013V51h2.312V38.077l.578.169a2.41 2.41 0 0 0 1.156 0l.578-.17V51h2.312V37.308l2.06-.938c3.989-1.838 6.878-3.826 9.69-6.677C42.709 25.135 45 19.958 45 14.33c.02-6.17-3.217-11.178-8.303-12.885-1.079-.375-1.638-.432-3.68-.413-2.138.019-2.62.094-4.238.6-1.907.62-3.776 1.595-5.008 2.607l-.713.6-1.04-.768c-2.678-1.97-5.414-2.926-8.63-3.058-1.118-.037-2.39 0-2.813.094Zm4.392 2.326c.809.15 1.907.469 2.485.694 1.233.506 3.294 1.8 4.103 2.57 1.252 1.181 1.6 1.162 3.025-.113 2.234-2.026 5.837-3.414 8.803-3.414 4.027 0 7.706 3.151 8.881 7.597.212.787.405 2.063.424 2.832.077 1.688.02 1.744-2.6 2.738-2.12.807-3.892 1.2-6.936 1.538-1.945.225-2.35.338-2.947.77-1.233.918-1.426 1.594-1.426 5.42 0 2.87-.038 3.414-.327 3.714-.405.45-1.118.431-1.6-.038-.365-.356-.384-.619-.384-4.408 0-4.201-.116-4.914-.906-5.758-.173-.187-1.541-.919-3.024-1.65-1.676-.788-3.352-1.763-4.354-2.532-4.835-3.62-6.974-4.652-10.942-5.271-1.137-.188-2.1-.356-2.139-.375-.173-.131.867-1.463 1.811-2.288 2.235-1.989 4.778-2.626 8.053-2.026Zm-6.377 7.24c1.965.488 4.18 1.594 6.203 3.095.848.619 1.927 1.406 2.409 1.763 1.29.956 3.428 2.157 5.047 2.832.79.338 1.54.732 1.676.9.173.207.23 1.388.23 4.333 0 3.545.059 4.145.367 4.802.636 1.35 1.657 1.969 3.217 1.969 1.002 0 1.695-.3 2.427-1.07.829-.843.925-1.368.925-4.95 0-4.07-.039-3.996 2.235-4.183 2.311-.207 5.182-.826 7.089-1.52.963-.356 1.792-.6 1.83-.544.212.207-1.233 3.883-2.08 5.308-1.349 2.308-2.408 3.62-4.45 5.534-2.967 2.775-7.051 5.157-11.212 6.583L23 36.051l-1.483-.525c-4.45-1.5-8.38-3.883-11.54-6.94-4.007-3.845-6.106-7.915-6.627-12.735-.192-1.801.097-4.896.54-5.627.154-.263 2.909.018 4.7.45Z"/></mask><path d="M10.575 1.108c-4.566.957-8.11 4.708-9.267 9.81-.423 1.782-.404 5.214.02 7.165.944 4.332 3.043 8.177 6.357 11.516 2.967 3.001 5.567 4.82 9.69 6.715l2.157 1.013V51h2.312V38.077l.578.169a2.41 2.41 0 0 0 1.156 0l.578-.17V51h2.312V37.308l2.06-.938c3.989-1.838 6.878-3.826 9.69-6.677C42.709 25.135 45 19.958 45 14.33c.02-6.17-3.217-11.178-8.303-12.885-1.079-.375-1.638-.432-3.68-.413-2.138.019-2.62.094-4.238.6-1.907.62-3.776 1.595-5.008 2.607l-.713.6-1.04-.768c-2.678-1.97-5.414-2.926-8.63-3.058-1.118-.037-2.39 0-2.813.094Zm4.392 2.326c.809.15 1.907.469 2.485.694 1.233.506 3.294 1.8 4.103 2.57 1.252 1.181 1.6 1.162 3.025-.113 2.234-2.026 5.837-3.414 8.803-3.414 4.027 0 7.706 3.151 8.881 7.597.212.787.405 2.063.424 2.832.077 1.688.02 1.744-2.6 2.738-2.12.807-3.892 1.2-6.936 1.538-1.945.225-2.35.338-2.947.77-1.233.918-1.426 1.594-1.426 5.42 0 2.87-.038 3.414-.327 3.714-.405.45-1.118.431-1.6-.038-.365-.356-.384-.619-.384-4.408 0-4.201-.116-4.914-.906-5.758-.173-.187-1.541-.919-3.024-1.65-1.676-.788-3.352-1.763-4.354-2.532-4.835-3.62-6.974-4.652-10.942-5.271-1.137-.188-2.1-.356-2.139-.375-.173-.131.867-1.463 1.811-2.288 2.235-1.989 4.778-2.626 8.053-2.026Zm-6.377 7.24c1.965.488 4.18 1.594 6.203 3.095.848.619 1.927 1.406 2.409 1.763 1.29.956 3.428 2.157 5.047 2.832.79.338 1.54.732 1.676.9.173.207.23 1.388.23 4.333 0 3.545.059 4.145.367 4.802.636 1.35 1.657 1.969 3.217 1.969 1.002 0 1.695-.3 2.427-1.07.829-.843.925-1.368.925-4.95 0-4.07-.039-3.996 2.235-4.183 2.311-.207 5.182-.826 7.089-1.52.963-.356 1.792-.6 1.83-.544.212.207-1.233 3.883-2.08 5.308-1.349 2.308-2.408 3.62-4.45 5.534-2.967 2.775-7.051 5.157-11.212 6.583L23 36.051l-1.483-.525c-4.45-1.5-8.38-3.883-11.54-6.94-4.007-3.845-6.106-7.915-6.627-12.735-.192-1.801.097-4.896.54-5.627.154-.263 2.909.018 4.7.45Z" fill="#FFA5BA"/><path d="M10.575 1.108c-4.566.957-8.11 4.708-9.267 9.81-.423 1.782-.404 5.214.02 7.165.944 4.332 3.043 8.177 6.357 11.516 2.967 3.001 5.567 4.82 9.69 6.715l2.157 1.013V51h2.312V38.077l.578.169a2.41 2.41 0 0 0 1.156 0l.578-.17V51h2.312V37.308l2.06-.938c3.989-1.838 6.878-3.826 9.69-6.677C42.709 25.135 45 19.958 45 14.33c.02-6.17-3.217-11.178-8.303-12.885-1.079-.375-1.638-.432-3.68-.413-2.138.019-2.62.094-4.238.6-1.907.62-3.776 1.595-5.008 2.607l-.713.6-1.04-.768c-2.678-1.97-5.414-2.926-8.63-3.058-1.118-.037-2.39 0-2.813.094Zm4.392 2.326c.809.15 1.907.469 2.485.694 1.233.506 3.294 1.8 4.103 2.57 1.252 1.181 1.6 1.162 3.025-.113 2.234-2.026 5.837-3.414 8.803-3.414 4.027 0 7.706 3.151 8.881 7.597.212.787.405 2.063.424 2.832.077 1.688.02 1.744-2.6 2.738-2.12.807-3.892 1.2-6.936 1.538-1.945.225-2.35.338-2.947.77-1.233.918-1.426 1.594-1.426 5.42 0 2.87-.038 3.414-.327 3.714-.405.45-1.118.431-1.6-.038-.365-.356-.384-.619-.384-4.408 0-4.201-.116-4.914-.906-5.758-.173-.187-1.541-.919-3.024-1.65-1.676-.788-3.352-1.763-4.354-2.532-4.835-3.62-6.974-4.652-10.942-5.271-1.137-.188-2.1-.356-2.139-.375-.173-.131.867-1.463 1.811-2.288 2.235-1.989 4.778-2.626 8.053-2.026Zm-6.377 7.24c1.965.488 4.18 1.594 6.203 3.095.848.619 1.927 1.406 2.409 1.763 1.29.956 3.428 2.157 5.047 2.832.79.338 1.54.732 1.676.9.173.207.23 1.388.23 4.333 0 3.545.059 4.145.367 4.802.636 1.35 1.657 1.969 3.217 1.969 1.002 0 1.695-.3 2.427-1.07.829-.843.925-1.368.925-4.95 0-4.07-.039-3.996 2.235-4.183 2.311-.207 5.182-.826 7.089-1.52.963-.356 1.792-.6 1.83-.544.212.207-1.233 3.883-2.08 5.308-1.349 2.308-2.408 3.62-4.45 5.534-2.967 2.775-7.051 5.157-11.212 6.583L23 36.051l-1.483-.525c-4.45-1.5-8.38-3.883-11.54-6.94-4.007-3.845-6.106-7.915-6.627-12.735-.192-1.801.097-4.896.54-5.627.154-.263 2.909.018 4.7.45Z" stroke="#FFA5BA" mask="url('#path-2-outside-1_0_1')"/></g><defs><clipPath id="clip0_0_1"><path transform="translate(-19 -3903)" d="M0 0h320v6711H0z"/></clipPath></defs></svg>