<svg width="46" height="52" viewBox="0 0 46 52" fill="none" xmlns="http://www.w3.org/2000/svg">
    <rect width="46" height="52" />
    <g clip-path="url(#clip0_0_1)">
        <rect width="320" height="6711" transform="translate(-19 -3903)" />
        <rect x="-19" y="-1314" width="320" height="1564" />
        <mask id="path-2-outside-1_0_1" maskUnits="userSpaceOnUse" x="0" y="0" width="46" height="52" fill="black">
            <rect fill="white" width="46" height="52" />
            <path
                d="M10.5745 1.10816C6.00889 2.06473 2.46425 5.81599 1.30839 10.9177C0.884578 12.6996 0.903842 16.132 1.32766 18.0826C2.27161 22.4154 4.37142 26.2604 7.68489 29.599C10.6516 32.6 13.2523 34.4194 17.3749 36.3138L19.5325 37.3266V44.1539V51H20.6883H21.8442V44.5478V38.0769L22.4221 38.2457C22.7496 38.3395 23.2505 38.3395 23.578 38.2457L24.1559 38.0769V44.5478V51H25.3118H26.4676V44.1539V37.3079L28.5289 36.3701C32.5166 34.5319 35.4063 32.5438 38.2189 29.6928C42.7075 25.135 44.9999 19.9583 44.9999 14.3314C45.0192 8.16054 41.7828 3.1526 36.697 1.44577C35.6182 1.07064 35.0595 1.01437 33.0175 1.03313C30.8792 1.05189 30.3975 1.12691 28.7793 1.63334C26.8722 2.25229 25.0035 3.22762 23.7706 4.24046L23.0578 4.84067L22.0176 4.07166C19.3398 2.10224 16.6043 1.14567 13.3871 1.01437C12.2698 0.976861 10.9984 1.01438 10.5745 1.10816ZM14.9668 3.43394C15.7759 3.58399 16.874 3.90285 17.4519 4.12793C18.6848 4.63435 20.7461 5.92853 21.5552 6.69754C22.8074 7.87919 23.1542 7.86044 24.5797 6.58501C26.8144 4.55932 30.4168 3.17135 33.3835 3.17135C37.4098 3.17135 41.0893 6.32242 42.2644 10.7677C42.4763 11.5554 42.6689 12.8309 42.6882 13.5999C42.7653 15.2879 42.7075 15.3442 40.0875 16.3383C37.9684 17.1448 36.1961 17.5387 33.1523 17.8763C31.2066 18.1014 30.8021 18.2139 30.2049 18.6453C28.972 19.5644 28.7793 20.2396 28.7793 24.0659C28.7793 26.9356 28.7408 27.4796 28.4518 27.7797C28.0473 28.2298 27.3345 28.2111 26.8529 27.7421C26.4869 27.3858 26.4676 27.1232 26.4676 23.3344C26.4676 19.133 26.352 18.4203 25.5622 17.5762C25.3888 17.3887 24.021 16.6572 22.5377 15.9257C20.8617 15.1379 19.1857 14.1626 18.184 13.3936C13.3486 9.77358 11.2103 8.74198 7.24181 8.12302C6.10521 7.93546 5.142 7.76665 5.10347 7.7479C4.93009 7.6166 5.97036 6.2849 6.91432 5.45963C9.14898 3.47145 11.6919 2.83374 14.9668 3.43394ZM8.59031 10.6739C10.5553 11.1615 12.7707 12.2682 14.7934 13.7687C15.6411 14.3876 16.7199 15.1754 17.2015 15.5318C18.4922 16.4883 20.6305 17.6888 22.2487 18.364C23.0386 18.7016 23.7899 19.0955 23.9247 19.2643C24.0981 19.4706 24.1559 20.6523 24.1559 23.597C24.1559 27.1419 24.2137 27.7421 24.5219 28.3986C25.1576 29.7491 26.1787 30.368 27.7391 30.368C28.7408 30.368 29.4343 30.0679 30.1664 29.2989C30.9947 28.4549 31.0911 27.9297 31.0911 24.3473C31.0911 20.2771 31.0525 20.3522 33.3257 20.1646C35.6374 19.9583 38.5078 19.3393 40.415 18.6453C41.3782 18.289 42.2066 18.0451 42.2451 18.1014C42.457 18.3077 41.0122 21.984 40.1646 23.4094C38.8161 25.7165 37.7565 27.0294 35.7145 28.9426C32.7478 31.7185 28.6638 34.1005 24.5027 35.526L23 36.0512L21.5167 35.526C17.0666 34.0255 13.1367 31.6435 9.97735 28.5862C5.97036 24.7411 3.87055 20.671 3.35041 15.8506C3.15777 14.05 3.44674 10.9552 3.88981 10.2237C4.04393 9.96115 6.79873 10.2425 8.59031 10.6739Z" />
        </mask>
        <path
            d="M10.5745 1.10816C6.00889 2.06473 2.46425 5.81599 1.30839 10.9177C0.884578 12.6996 0.903842 16.132 1.32766 18.0826C2.27161 22.4154 4.37142 26.2604 7.68489 29.599C10.6516 32.6 13.2523 34.4194 17.3749 36.3138L19.5325 37.3266V44.1539V51H20.6883H21.8442V44.5478V38.0769L22.4221 38.2457C22.7496 38.3395 23.2505 38.3395 23.578 38.2457L24.1559 38.0769V44.5478V51H25.3118H26.4676V44.1539V37.3079L28.5289 36.3701C32.5166 34.5319 35.4063 32.5438 38.2189 29.6928C42.7075 25.135 44.9999 19.9583 44.9999 14.3314C45.0192 8.16054 41.7828 3.1526 36.697 1.44577C35.6182 1.07064 35.0595 1.01437 33.0175 1.03313C30.8792 1.05189 30.3975 1.12691 28.7793 1.63334C26.8722 2.25229 25.0035 3.22762 23.7706 4.24046L23.0578 4.84067L22.0176 4.07166C19.3398 2.10224 16.6043 1.14567 13.3871 1.01437C12.2698 0.976861 10.9984 1.01438 10.5745 1.10816ZM14.9668 3.43394C15.7759 3.58399 16.874 3.90285 17.4519 4.12793C18.6848 4.63435 20.7461 5.92853 21.5552 6.69754C22.8074 7.87919 23.1542 7.86044 24.5797 6.58501C26.8144 4.55932 30.4168 3.17135 33.3835 3.17135C37.4098 3.17135 41.0893 6.32242 42.2644 10.7677C42.4763 11.5554 42.6689 12.8309 42.6882 13.5999C42.7653 15.2879 42.7075 15.3442 40.0875 16.3383C37.9684 17.1448 36.1961 17.5387 33.1523 17.8763C31.2066 18.1014 30.8021 18.2139 30.2049 18.6453C28.972 19.5644 28.7793 20.2396 28.7793 24.0659C28.7793 26.9356 28.7408 27.4796 28.4518 27.7797C28.0473 28.2298 27.3345 28.2111 26.8529 27.7421C26.4869 27.3858 26.4676 27.1232 26.4676 23.3344C26.4676 19.133 26.352 18.4203 25.5622 17.5762C25.3888 17.3887 24.021 16.6572 22.5377 15.9257C20.8617 15.1379 19.1857 14.1626 18.184 13.3936C13.3486 9.77358 11.2103 8.74198 7.24181 8.12302C6.10521 7.93546 5.142 7.76665 5.10347 7.7479C4.93009 7.6166 5.97036 6.2849 6.91432 5.45963C9.14898 3.47145 11.6919 2.83374 14.9668 3.43394ZM8.59031 10.6739C10.5553 11.1615 12.7707 12.2682 14.7934 13.7687C15.6411 14.3876 16.7199 15.1754 17.2015 15.5318C18.4922 16.4883 20.6305 17.6888 22.2487 18.364C23.0386 18.7016 23.7899 19.0955 23.9247 19.2643C24.0981 19.4706 24.1559 20.6523 24.1559 23.597C24.1559 27.1419 24.2137 27.7421 24.5219 28.3986C25.1576 29.7491 26.1787 30.368 27.7391 30.368C28.7408 30.368 29.4343 30.0679 30.1664 29.2989C30.9947 28.4549 31.0911 27.9297 31.0911 24.3473C31.0911 20.2771 31.0525 20.3522 33.3257 20.1646C35.6374 19.9583 38.5078 19.3393 40.415 18.6453C41.3782 18.289 42.2066 18.0451 42.2451 18.1014C42.457 18.3077 41.0122 21.984 40.1646 23.4094C38.8161 25.7165 37.7565 27.0294 35.7145 28.9426C32.7478 31.7185 28.6638 34.1005 24.5027 35.526L23 36.0512L21.5167 35.526C17.0666 34.0255 13.1367 31.6435 9.97735 28.5862C5.97036 24.7411 3.87055 20.671 3.35041 15.8506C3.15777 14.05 3.44674 10.9552 3.88981 10.2237C4.04393 9.96115 6.79873 10.2425 8.59031 10.6739Z"
            fill="#FFA5BA" />
        <path
            d="M10.5745 1.10816C6.00889 2.06473 2.46425 5.81599 1.30839 10.9177C0.884578 12.6996 0.903842 16.132 1.32766 18.0826C2.27161 22.4154 4.37142 26.2604 7.68489 29.599C10.6516 32.6 13.2523 34.4194 17.3749 36.3138L19.5325 37.3266V44.1539V51H20.6883H21.8442V44.5478V38.0769L22.4221 38.2457C22.7496 38.3395 23.2505 38.3395 23.578 38.2457L24.1559 38.0769V44.5478V51H25.3118H26.4676V44.1539V37.3079L28.5289 36.3701C32.5166 34.5319 35.4063 32.5438 38.2189 29.6928C42.7075 25.135 44.9999 19.9583 44.9999 14.3314C45.0192 8.16054 41.7828 3.1526 36.697 1.44577C35.6182 1.07064 35.0595 1.01437 33.0175 1.03313C30.8792 1.05189 30.3975 1.12691 28.7793 1.63334C26.8722 2.25229 25.0035 3.22762 23.7706 4.24046L23.0578 4.84067L22.0176 4.07166C19.3398 2.10224 16.6043 1.14567 13.3871 1.01437C12.2698 0.976861 10.9984 1.01438 10.5745 1.10816ZM14.9668 3.43394C15.7759 3.58399 16.874 3.90285 17.4519 4.12793C18.6848 4.63435 20.7461 5.92853 21.5552 6.69754C22.8074 7.87919 23.1542 7.86044 24.5797 6.58501C26.8144 4.55932 30.4168 3.17135 33.3835 3.17135C37.4098 3.17135 41.0893 6.32242 42.2644 10.7677C42.4763 11.5554 42.6689 12.8309 42.6882 13.5999C42.7653 15.2879 42.7075 15.3442 40.0875 16.3383C37.9684 17.1448 36.1961 17.5387 33.1523 17.8763C31.2066 18.1014 30.8021 18.2139 30.2049 18.6453C28.972 19.5644 28.7793 20.2396 28.7793 24.0659C28.7793 26.9356 28.7408 27.4796 28.4518 27.7797C28.0473 28.2298 27.3345 28.2111 26.8529 27.7421C26.4869 27.3858 26.4676 27.1232 26.4676 23.3344C26.4676 19.133 26.352 18.4203 25.5622 17.5762C25.3888 17.3887 24.021 16.6572 22.5377 15.9257C20.8617 15.1379 19.1857 14.1626 18.184 13.3936C13.3486 9.77358 11.2103 8.74198 7.24181 8.12302C6.10521 7.93546 5.142 7.76665 5.10347 7.7479C4.93009 7.6166 5.97036 6.2849 6.91432 5.45963C9.14898 3.47145 11.6919 2.83374 14.9668 3.43394ZM8.59031 10.6739C10.5553 11.1615 12.7707 12.2682 14.7934 13.7687C15.6411 14.3876 16.7199 15.1754 17.2015 15.5318C18.4922 16.4883 20.6305 17.6888 22.2487 18.364C23.0386 18.7016 23.7899 19.0955 23.9247 19.2643C24.0981 19.4706 24.1559 20.6523 24.1559 23.597C24.1559 27.1419 24.2137 27.7421 24.5219 28.3986C25.1576 29.7491 26.1787 30.368 27.7391 30.368C28.7408 30.368 29.4343 30.0679 30.1664 29.2989C30.9947 28.4549 31.0911 27.9297 31.0911 24.3473C31.0911 20.2771 31.0525 20.3522 33.3257 20.1646C35.6374 19.9583 38.5078 19.3393 40.415 18.6453C41.3782 18.289 42.2066 18.0451 42.2451 18.1014C42.457 18.3077 41.0122 21.984 40.1646 23.4094C38.8161 25.7165 37.7565 27.0294 35.7145 28.9426C32.7478 31.7185 28.6638 34.1005 24.5027 35.526L23 36.0512L21.5167 35.526C17.0666 34.0255 13.1367 31.6435 9.97735 28.5862C5.97036 24.7411 3.87055 20.671 3.35041 15.8506C3.15777 14.05 3.44674 10.9552 3.88981 10.2237C4.04393 9.96115 6.79873 10.2425 8.59031 10.6739Z"
            stroke="#FFA5BA" mask="url(#path-2-outside-1_0_1)" />
    </g>
    <defs>
        <clipPath id="clip0_0_1">
            <rect width="320" height="6711" transform="translate(-19 -3903)" />
        </clipPath>
    </defs>
</svg>